<mxfile host="app.diagrams.net" modified="2024-04-22T00:03:20.383Z" agent="Mozilla/5.0 (Windows NT 10.0; Win64; x64; rv:125.0) Gecko/20100101 Firefox/125.0" version="24.2.7" etag="ajEh0fH61VhCGwfD8Too" type="github">
  <diagram name="Page-1" id="WR0QxEF4mZDxjGr8Xotk">
    <mxGraphModel>
      <root>
        <mxCell id="0" />
        <mxCell id="1" parent="0" />
      </root>
    </mxGraphModel>
  </diagram>
</mxfile>
